<svg width="222" height="65" viewBox="0 0 222 65" fill="none" xmlns="http://www.w3.org/2000/svg">
<g clip-path="url(#clip0_45_432)">
<path d="M22.956 23.3484L18.728 18.9966C26.0516 11.4587 34.1749 5.57767 41.6016 2.43931C49.8565 -1.04951 56.5248 -0.789317 60.3788 3.17744L56.1508 7.52918C54.1722 5.4927 49.5831 5.71839 43.8743 8.13455C37.1647 10.9729 29.7353 16.376 22.9586 23.351L22.956 23.3484Z" fill="url(#paint0_linear_45_432)"/>
<path d="M56.151 7.52675C56.3573 7.73916 56.5379 7.97281 56.6978 8.24098C56.9378 8.6419 57.1338 9.12514 57.2731 9.71723C57.4124 10.3094 57.4924 11.0077 57.4924 11.8069C57.4949 13.4291 57.1544 15.4576 56.4347 17.7331C55.8956 19.4403 55.1501 21.2856 54.2034 23.2159C52.7871 26.1126 50.9246 29.1979 48.6675 32.323C46.4128 35.448 43.7635 38.6156 40.7789 41.6902C40.134 42.354 39.4865 42.9992 38.8364 43.6285L42.9303 48.113C43.6268 47.4386 44.3182 46.7482 45.0069 46.042C50.6744 40.206 55.23 34.0408 58.4133 28.173C60.0049 25.2365 61.256 22.3742 62.1202 19.6368C62.9818 16.8967 63.4694 14.2841 63.472 11.8069C63.472 10.1846 63.2579 8.6127 62.7626 7.13911C62.5149 6.40364 62.195 5.69207 61.7952 5.02563C61.3979 4.3592 60.9233 3.73259 60.379 3.17236L56.151 7.5241V7.52675Z" fill="#162318"/>
<path d="M7.32101 57.4724C7.11463 57.26 6.93406 57.0263 6.77412 56.7582C6.53422 56.3572 6.33817 55.874 6.19887 55.2819C6.05957 54.6898 5.9796 53.9915 5.9796 53.1923C5.97702 51.57 6.31753 49.5415 7.03724 47.2661C7.57639 45.5589 8.3219 43.7135 9.26863 41.7833C10.6848 38.8865 12.5474 35.8013 14.8045 32.6762C17.0592 29.5511 19.7084 26.3836 22.693 23.3089C23.3379 22.6452 23.9854 22 24.6356 21.3707L20.5417 16.8862C19.8452 17.5606 19.1538 18.2509 18.465 18.9572C12.7976 24.7932 8.24194 30.9583 5.05867 36.8262C3.46703 39.7627 2.21591 42.6249 1.35173 45.3624C0.487551 48.0998 0.00257963 50.7151 0 53.1897C0 54.8119 0.21411 56.3838 0.7094 57.8574C0.957045 58.5928 1.27692 59.3044 1.67676 59.9708C2.07403 60.6373 2.54868 61.2639 3.09299 61.8241L7.32101 57.4724Z" fill="#162318"/>
<path d="M11.4766 64.9992C8.0044 64.9992 5.14874 63.9372 3.09277 61.8211L7.3208 57.4693C9.29938 59.5058 13.8885 59.2801 19.5973 56.8639C26.3069 54.0256 33.7363 48.6225 40.513 41.6475L44.741 45.9992C37.4174 53.5371 29.2941 59.4182 21.8674 62.5565C18.016 64.1841 14.5102 64.9966 11.474 64.9966L11.4766 64.9992Z" fill="url(#paint1_linear_45_432)"/>
<path d="M11.3144 19.5651H23.0337V18.5456L22.6468 19.4855C22.7654 19.5386 22.9048 19.5678 23.0337 19.5678V18.5482L22.6468 19.4881L23.0312 18.5562L22.216 19.1244C22.3217 19.2863 22.4662 19.4111 22.6494 19.4908L23.0337 18.5588L22.2186 19.127L23.044 18.5535L22.0922 18.8589C22.1205 18.9571 22.1644 19.0474 22.2186 19.1297L23.044 18.5562L22.0922 18.8615L23.0337 18.5588H22.0457C22.0457 18.6571 22.0612 18.7633 22.0896 18.8615L23.0312 18.5588H22.0431V30.6237C22.0431 31.322 22.5926 31.8849 23.2685 31.8849H26.7948C27.4733 31.8849 28.0202 31.3193 28.0202 30.6237V18.5588C28.0202 17.8579 27.8809 17.1755 27.6281 16.5595C27.2463 15.6329 26.6194 14.8549 25.8223 14.3027C25.425 14.0265 24.984 13.8062 24.5119 13.6548C24.0398 13.5035 23.5393 13.4238 23.0286 13.4238H11.3093C10.6309 13.4238 10.084 13.9894 10.084 14.685V18.3146C10.084 19.0129 10.6334 19.5757 11.3093 19.5757L11.3144 19.5651Z" fill="#162318"/>
<path d="M54.3942 42.9196H42.6749V43.9391L43.0618 42.9992C42.9431 42.9461 42.8039 42.9169 42.6749 42.9169V43.9365L43.0618 42.9966L42.6775 43.9285L43.4927 43.3603C43.3869 43.1983 43.2424 43.0736 43.0593 42.9939L42.6749 43.9258L43.49 43.3577L42.6646 43.9312L43.6165 43.6258C43.5881 43.5276 43.5443 43.4373 43.49 43.355L42.6646 43.9285L43.6165 43.6232L42.6749 43.9258H43.6629C43.6629 43.8276 43.6475 43.7214 43.6191 43.6232L42.6775 43.9258H43.6655V31.8636C43.6655 31.1653 43.116 30.6025 42.4401 30.6025H38.9138C38.2354 30.6025 37.6885 31.168 37.6885 31.8636V43.9258C37.6885 44.6268 37.8278 45.3092 38.0806 45.9252C38.4624 46.8518 39.0892 47.6297 39.8863 48.182C40.2835 48.4581 40.7247 48.6785 41.1968 48.8299C41.6688 48.9812 42.1693 49.0609 42.6801 49.0609H54.3994C55.0778 49.0609 55.6247 48.4953 55.6247 47.7997V44.1701C55.6247 43.4718 55.0752 42.9089 54.3994 42.9089L54.3942 42.9196Z" fill="#162318"/>
<g clip-path="url(#clip1_45_432)">
<path d="M98.1923 45.8952C99.6507 47.5356 99.0345 48.9961 96.8846 48.9961H94.6436C93.3542 48.9961 92.4651 48.5966 91.5968 47.6256L82.0688 36.9895C81.2265 36.0475 80.3842 36.3704 80.3608 37.6456L80.2075 46.4932C80.1789 48.1229 79.3079 48.9935 77.7065 48.9935H76.0895C74.4777 48.9935 73.6094 48.1097 73.6094 46.4694V15.63C73.6094 13.9896 74.4777 13.106 76.0895 13.106H86.9277C94.6125 13.106 99.4037 17.6726 99.4037 23.8611C99.4037 30.0496 94.927 33.9839 90.5881 34.9152C89.4989 35.148 89.2128 35.7751 89.9667 36.6217L98.1975 45.8899V45.8952H98.1923ZM86.4623 18.9082H81.5385C80.6442 18.9082 80.1606 19.3976 80.1606 20.3104V28.5388C80.1606 29.449 80.6416 29.9411 81.5385 29.9411H86.4623C90.5492 29.9411 92.7173 27.8218 92.7173 24.4908C92.7173 21.1597 90.6583 18.9082 86.4623 18.9082Z" fill="#162318"/>
<path d="M100.654 35.6637C100.654 27.8056 106.366 21.5166 114.326 21.5166C122.287 21.5166 128.05 27.8056 128.05 35.6637C128.05 43.5217 122.175 49.8821 114.363 49.8821C106.55 49.8821 100.654 43.8497 100.654 35.6637ZM121.639 35.6637C121.639 31.2372 119.208 27.1521 114.326 27.1521C109.444 27.1521 107.068 31.2372 107.068 35.6637C107.068 40.0901 109.59 44.2492 114.363 44.2492C119.136 44.2492 121.639 40.1112 121.639 35.6637Z" fill="#162318"/>
<path d="M130.14 37.7063V24.8796C130.14 23.2392 131.008 22.3555 132.62 22.3555H133.998C135.61 22.3555 136.478 23.2392 136.478 24.8796V36.8068C136.478 42.638 138.701 44.1991 141.917 44.1991C145.133 44.1991 147.501 42.638 147.501 36.8068V24.8796C147.501 23.2392 148.369 22.3555 149.981 22.3555H151.359C152.971 22.3555 153.839 23.2392 153.839 24.8796V37.7063C153.839 46.3607 148.879 49.8823 141.919 49.8823C134.96 49.8823 130.145 46.3236 130.145 37.7063H130.14Z" fill="#162318"/>
<path d="M171.416 21.6808C177.977 21.6808 181.553 26.3401 181.553 33.3409V46.464C181.553 48.1043 180.684 48.988 179.072 48.988H177.694C176.082 48.988 175.215 48.1043 175.215 46.464V34.796C175.215 29.0018 172.843 27.147 169.703 27.147C166.562 27.147 163.859 29.5018 163.859 35.1797V46.464C163.859 48.1043 162.99 48.988 161.378 48.988H160.001C158.389 48.988 157.521 48.1043 157.521 46.464V24.8743C157.521 23.2339 158.376 22.3503 159.959 22.3503H160.076C161.615 22.3503 162.494 23.0699 162.681 24.4907C162.832 25.6363 163.341 25.9459 163.908 25.2395C165.478 23.3001 167.979 21.6782 171.408 21.6782H171.411L171.416 21.6808Z" fill="#162318"/>
<path d="M204.011 23.2258V15.6271C204.011 13.9867 204.879 13.103 206.491 13.103H207.869C209.48 13.103 210.349 13.9867 210.349 15.6271V46.4691C210.349 48.1094 209.493 48.9931 207.91 48.9931H207.796C206.254 48.9931 205.375 48.2576 205.186 46.8051C205.033 45.6303 204.39 45.5165 203.578 46.4002C201.798 48.3132 199.089 49.7366 195.689 49.7366C188.763 49.7366 183.582 43.9635 183.582 36.0314C183.582 27.6945 188.888 21.6277 195.959 21.6277C198.648 21.6277 200.85 22.5115 202.49 23.8714C203.407 24.6413 204.016 24.4349 204.016 23.2232L204.011 23.2258ZM204.284 35.7192C204.284 31.3299 201.886 27.1495 197.189 27.1495C192.491 27.1495 189.985 31.2346 189.985 35.661C189.985 40.0874 192.452 44.2466 197.226 44.2466C201.998 44.2466 204.284 40.0319 204.284 35.7192Z" fill="#162318"/>
<path d="M213.279 13.9234C213.279 11.8226 214.958 10.1875 217.329 10.1875C219.699 10.1875 221.38 11.8226 221.38 13.9234C221.38 16.0241 219.682 17.6777 217.329 17.6777C214.976 17.6777 213.279 16.04 213.279 13.9234ZM218.018 48.9906H216.64C215.029 48.9906 214.16 48.1069 214.16 46.4665V24.8769C214.16 23.2366 215.029 22.3528 216.64 22.3528H218.018C219.63 22.3528 220.498 23.2366 220.498 24.8769V46.4665C220.498 48.1069 219.63 48.9906 218.018 48.9906Z" fill="#162318"/>
</g>
</g>
<defs>
<linearGradient id="paint0_linear_45_432" x1="60.3762" y1="11.6738" x2="18.728" y2="11.6738" gradientUnits="userSpaceOnUse">
<stop stop-color="#162318"/>
<stop offset="0.16" stop-color="#162318"/>
<stop offset="0.46" stop-color="#162318" stop-opacity="0.45"/>
<stop offset="0.65" stop-color="#162318" stop-opacity="0"/>
</linearGradient>
<linearGradient id="paint1_linear_45_432" x1="3.09277" y1="53.3247" x2="44.7436" y2="53.3247" gradientUnits="userSpaceOnUse">
<stop stop-color="#162318"/>
<stop offset="0.16" stop-color="#162318"/>
<stop offset="0.46" stop-color="#162318" stop-opacity="0.45"/>
<stop offset="0.65" stop-color="#162318" stop-opacity="0"/>
</linearGradient>
<clipPath id="clip0_45_432">
<rect width="222" height="65" fill="white"/>
</clipPath>
<clipPath id="clip1_45_432">
<rect width="148.391" height="39.8594" fill="white" transform="translate(73.6094 10.1875)"/>
</clipPath>
</defs>
</svg>
