<svg xmlns="http://www.w3.org/2000/svg" width="155" height="44.618" fill="none" overflow="visible"><g><g><defs><linearGradient id="idid_owOChPmpuWiVtmJ782g-200505616" x1="1" x2="0" y1="0.4974874371859296" y2="0.5025125628140704"><stop offset="0" stop-color="rgb(22,35,24)" stop-opacity="1"></stop><stop offset="1" stop-color="rgba(22,35,24,0)" stop-opacity="0"></stop></linearGradient></defs><path d="M 16.219 16.027 L 13.232 13.04 C 18.406 7.866 24.145 3.829 29.392 1.674 C 35.225 -0.72 39.936 -0.542 42.659 2.181 L 39.672 5.168 C 38.274 3.77 35.032 3.925 30.998 5.584 C 26.258 7.532 21.009 11.241 16.221 16.029 Z" fill="url(#idid_owOChPmpuWiVtmJ782g-200505616)"></path></g><path d="M 39.672 5.166 C 39.818 5.312 39.945 5.473 40.058 5.657 C 40.228 5.932 40.366 6.264 40.465 6.67 C 40.563 7.077 40.619 7.556 40.619 8.104 C 40.621 9.218 40.381 10.61 39.872 12.172 C 39.491 13.344 38.965 14.611 38.296 15.936 C 37.295 17.924 35.979 20.042 34.385 22.187 C 32.792 24.333 30.92 26.507 28.811 28.617 C 28.355 29.073 27.898 29.516 27.439 29.948 L 30.331 33.026 C 30.823 32.563 31.312 32.089 31.798 31.605 C 35.802 27.599 39.021 23.367 41.27 19.339 C 42.395 17.323 43.279 15.358 43.889 13.479 C 44.498 11.598 44.842 9.805 44.844 8.104 C 44.844 6.991 44.693 5.912 44.343 4.9 C 44.168 4.396 43.942 3.907 43.66 3.45 C 43.377 2.988 43.041 2.561 42.659 2.177 L 39.672 5.165 Z M 5.172 39.451 C 5.027 39.305 4.899 39.145 4.786 38.96 C 4.617 38.685 4.478 38.354 4.38 37.947 C 4.281 37.541 4.225 37.061 4.225 36.513 C 4.223 35.399 4.463 34.007 4.972 32.445 C 5.353 31.273 5.88 30.006 6.548 28.681 C 7.549 26.693 8.865 24.575 10.46 22.43 C 12.053 20.285 13.924 18.11 16.033 16 C 16.489 15.544 16.946 15.101 17.405 14.669 L 14.513 11.591 C 14.021 12.054 13.533 12.528 13.046 13.013 C 9.042 17.019 5.823 21.251 3.574 25.278 C 2.45 27.294 1.566 29.259 0.955 31.138 C 0.344 33.017 0.002 34.812 0 36.511 C 0 37.625 0.151 38.703 0.501 39.715 C 0.676 40.22 0.902 40.708 1.185 41.166 C 1.465 41.623 1.801 42.053 2.185 42.438 Z" fill="rgb(22,35,24)"></path><g><defs><linearGradient id="idid_owOChPmpunGpP2N0ldg-200505436" x1="0" x2="1" y1="0.4975124378109453" y2="0.5024875621890547"><stop offset="0" stop-color="rgb(22,35,24)" stop-opacity="1"></stop><stop offset="1" stop-color="rgba(22,35,24,0)" stop-opacity="0"></stop></linearGradient></defs><path d="M 8.109 44.618 C 5.655 44.618 3.638 43.889 2.185 42.436 L 5.172 39.449 C 6.57 40.847 9.813 40.692 13.846 39.033 C 18.587 37.085 23.835 33.376 28.623 28.588 L 31.611 31.575 C 26.436 36.75 20.697 40.787 15.45 42.941 C 12.729 44.058 10.252 44.616 8.107 44.616 Z" fill="url(#idid_owOChPmpunGpP2N0ldg-200505436)"></path></g><path d="M 7.994 13.43 L 16.274 13.43 L 16.274 12.73 L 16 13.375 C 16.084 13.412 16.183 13.432 16.274 13.432 L 16.274 12.732 L 16 13.377 L 16.272 12.737 L 15.696 13.127 C 15.771 13.239 15.873 13.324 16.002 13.379 L 16.274 12.739 L 15.698 13.129 L 16.281 12.736 L 15.608 12.945 C 15.628 13.013 15.659 13.075 15.698 13.131 L 16.281 12.737 L 15.608 12.947 L 16.274 12.739 L 15.576 12.739 C 15.576 12.807 15.587 12.88 15.607 12.947 L 16.272 12.739 L 15.574 12.739 L 15.574 21.021 C 15.574 21.5 15.962 21.887 16.44 21.887 L 18.931 21.887 C 19.41 21.887 19.797 21.498 19.797 21.021 L 19.797 12.739 C 19.798 11.567 19.216 10.472 18.244 9.818 C 17.959 9.625 17.647 9.475 17.318 9.373 C 16.984 9.269 16.631 9.214 16.27 9.214 L 7.99 9.214 C 7.511 9.214 7.124 9.603 7.124 10.08 L 7.124 12.572 C 7.124 13.051 7.513 13.437 7.99 13.437 Z M 38.431 29.461 L 30.151 29.461 L 30.151 30.161 L 30.424 29.516 C 30.34 29.479 30.242 29.459 30.151 29.459 L 30.151 30.159 L 30.424 29.514 L 30.153 30.154 L 30.728 29.764 C 30.654 29.653 30.552 29.567 30.422 29.512 L 30.151 30.152 L 30.727 29.762 L 30.143 30.156 L 30.816 29.946 C 30.796 29.879 30.765 29.817 30.727 29.76 L 30.143 30.154 L 30.816 29.944 L 30.151 30.152 L 30.849 30.152 C 30.849 30.085 30.838 30.012 30.818 29.944 L 30.153 30.152 L 30.851 30.152 L 30.851 21.872 C 30.851 21.393 30.462 21.006 29.985 21.006 L 27.493 21.006 C 27.014 21.006 26.628 21.395 26.628 21.872 L 26.628 30.152 C 26.626 31.324 27.208 32.419 28.18 33.074 C 28.461 33.263 28.773 33.414 29.106 33.518 C 29.44 33.622 29.793 33.677 30.154 33.677 L 38.434 33.677 C 38.914 33.677 39.3 33.289 39.3 32.811 L 39.3 30.32 C 39.3 29.84 38.912 29.454 38.434 29.454 Z M 68.638 31.599 C 69.66 32.729 69.228 33.735 67.721 33.735 L 66.15 33.735 C 65.246 33.735 64.623 33.46 64.014 32.791 L 57.334 25.464 C 56.744 24.816 56.153 25.038 56.137 25.916 L 56.029 32.011 C 56.009 33.134 55.399 33.733 54.276 33.733 L 53.142 33.733 C 52.012 33.733 51.404 33.125 51.404 31.995 L 51.404 10.751 C 51.404 9.621 52.012 9.012 53.142 9.012 L 60.741 9.012 C 66.128 9.012 69.487 12.158 69.487 16.421 C 69.487 20.684 66.349 23.394 63.307 24.035 C 62.543 24.196 62.343 24.628 62.871 25.211 L 68.641 31.595 L 68.641 31.599 Z M 60.414 13.009 L 56.962 13.009 C 56.335 13.009 55.996 13.346 55.996 13.975 L 55.996 19.643 C 55.996 20.27 56.334 20.609 56.962 20.609 L 60.414 20.609 C 63.279 20.609 64.799 19.149 64.799 16.855 C 64.799 14.56 63.356 13.009 60.414 13.009 Z M 70.364 24.551 C 70.364 19.138 74.368 14.806 79.949 14.806 C 85.529 14.806 89.57 19.138 89.57 24.551 C 89.57 29.964 85.451 34.346 79.974 34.346 C 74.497 34.346 70.364 30.19 70.364 24.551 Z M 85.075 24.551 C 85.075 21.502 83.371 18.688 79.949 18.688 C 76.526 18.688 74.86 21.502 74.86 24.551 C 74.86 27.6 76.628 30.465 79.974 30.465 C 83.32 30.465 85.075 27.615 85.075 24.551 Z M 91.035 25.958 L 91.035 17.122 C 91.035 15.992 91.644 15.384 92.774 15.384 L 93.74 15.384 C 94.87 15.384 95.479 15.992 95.479 17.122 L 95.479 25.339 C 95.479 29.356 97.037 30.431 99.291 30.431 C 101.546 30.431 103.206 29.356 103.206 25.339 L 103.206 17.122 C 103.206 15.992 103.815 15.384 104.945 15.384 L 105.911 15.384 C 107.041 15.384 107.65 15.992 107.65 17.122 L 107.65 25.958 C 107.65 31.92 104.172 34.346 99.293 34.346 C 94.414 34.346 91.039 31.894 91.039 25.958 Z M 119.972 14.919 C 124.572 14.919 127.078 18.129 127.078 22.951 L 127.078 31.991 C 127.078 33.121 126.47 33.73 125.34 33.73 L 124.374 33.73 C 123.244 33.73 122.635 33.121 122.635 31.991 L 122.635 23.953 C 122.635 19.962 120.973 18.684 118.771 18.684 C 116.569 18.684 114.674 20.307 114.674 24.218 L 114.674 31.991 C 114.674 33.121 114.065 33.73 112.935 33.73 L 111.969 33.73 C 110.839 33.73 110.231 33.121 110.231 31.991 L 110.231 17.119 C 110.231 15.989 110.83 15.38 111.94 15.38 L 112.022 15.38 C 113.101 15.38 113.717 15.876 113.848 16.855 C 113.954 17.644 114.311 17.857 114.709 17.37 C 115.809 16.034 117.563 14.917 119.967 14.917 L 119.968 14.917 Z M 142.823 15.983 L 142.823 10.749 C 142.823 9.619 143.432 9.01 144.562 9.01 L 145.528 9.01 C 146.658 9.01 147.267 9.619 147.267 10.749 L 147.267 31.995 C 147.267 33.125 146.667 33.733 145.557 33.733 L 145.477 33.733 C 144.396 33.733 143.78 33.227 143.647 32.226 C 143.54 31.417 143.09 31.338 142.521 31.947 C 141.272 33.265 139.373 34.245 136.989 34.245 C 132.134 34.245 128.502 30.269 128.502 24.805 C 128.502 19.062 132.222 14.883 137.179 14.883 C 139.063 14.883 140.607 15.491 141.757 16.428 C 142.401 16.958 142.827 16.816 142.827 15.982 Z M 143.015 24.59 C 143.015 21.566 141.334 18.686 138.041 18.686 C 134.748 18.686 132.991 21.5 132.991 24.549 C 132.991 27.599 134.72 30.464 138.067 30.464 C 141.413 30.464 143.015 27.56 143.015 24.59 Z M 149.321 9.575 C 149.321 8.128 150.498 7.002 152.16 7.002 C 153.823 7.002 155 8.128 155 9.575 C 155 11.022 153.81 12.161 152.16 12.161 C 150.511 12.161 149.321 11.033 149.321 9.575 Z M 152.643 33.732 L 151.677 33.732 C 150.547 33.732 149.939 33.123 149.939 31.993 L 149.939 17.121 C 149.939 15.991 150.547 15.382 151.677 15.382 L 152.643 15.382 C 153.773 15.382 154.382 15.991 154.382 17.121 L 154.382 31.993 C 154.382 33.123 153.773 33.732 152.643 33.732 Z" fill="rgb(22,35,24)"></path></g></svg>