<svg xmlns="http://www.w3.org/2000/svg" width="236.007" height="67.007" fill="none" overflow="visible"><g><path d="M 0 67 L 0 0 L 236 0 L 236 67 Z" fill="transparent"></path><g><defs><linearGradient id="idid_oeF1ejwa8YrK3zp7ycg-94788238" x1="1" x2="0" y1="0.4974874371859296" y2="0.5025125628140704"><stop offset="0" stop-color="rgb(200,226,152)" stop-opacity="1"></stop><stop offset="1" stop-color="rgba(200,226,152,0)" stop-opacity="0"></stop></linearGradient></defs><path d="M 24.698 24.068 L 20.153 19.585 C 28.032 11.815 36.773 5.752 44.755 2.518 C 53.633 -1.08 60.807 -0.81 64.956 3.281 L 60.41 7.764 C 58.281 5.664 53.346 5.901 47.206 8.385 C 39.984 11.308 31.995 16.878 24.705 24.068 Z" fill="url(#idid_oeF1ejwa8YrK3zp7ycg-94788238)"></path></g><path d="M 60.403 7.757 C 60.629 7.98 60.821 8.216 60.992 8.493 C 61.252 8.905 61.458 9.404 61.608 10.019 C 61.759 10.626 61.848 11.349 61.848 12.172 C 61.848 13.847 61.485 15.94 60.711 18.282 C 60.13 20.044 59.329 21.942 58.309 23.933 C 56.782 26.917 54.783 30.097 52.353 33.324 C 49.93 36.545 47.075 39.812 43.865 42.979 C 43.174 43.661 42.475 44.329 41.777 44.977 L 46.185 49.602 C 46.932 48.906 47.678 48.197 48.417 47.468 C 54.516 41.453 59.411 35.1 62.84 29.051 C 64.552 26.026 65.9 23.076 66.824 20.254 C 67.755 17.432 68.275 14.738 68.275 12.186 C 68.275 10.512 68.043 8.891 67.509 7.372 C 67.242 6.616 66.9 5.88 66.468 5.192 C 66.044 4.503 65.53 3.862 64.942 3.281 L 60.396 7.764 Z" fill="rgb(200,226,152)"></path><path d="M 7.872 59.243 C 7.646 59.02 7.455 58.783 7.283 58.507 C 7.023 58.095 6.818 57.595 6.667 56.981 C 6.517 56.373 6.428 55.651 6.428 54.827 C 6.428 53.153 6.791 51.06 7.564 48.717 C 8.146 46.955 8.947 45.058 9.967 43.066 C 11.493 40.082 13.492 36.903 15.922 33.675 C 18.346 30.455 21.2 27.187 24.41 24.021 C 25.102 23.339 25.8 22.671 26.498 22.023 L 22.09 17.398 C 21.344 18.093 20.598 18.802 19.858 19.531 C 13.759 25.547 8.865 31.9 5.435 37.949 C 3.724 40.974 2.375 43.924 1.444 46.746 C 0.527 49.581 0 52.275 0 54.827 C 0 56.502 0.226 58.122 0.767 59.641 C 1.034 60.397 1.376 61.133 1.807 61.822 C 2.232 62.51 2.745 63.152 3.334 63.732 L 7.879 59.249 Z" fill="rgb(200,226,152)"></path><g><defs><linearGradient id="idid_oeF1ejwa8nNyIG3lRqg-94788570" x1="0" x2="1" y1="0.4975124378109453" y2="0.5024875621890547"><stop offset="0" stop-color="rgb(200,226,152)" stop-opacity="1"></stop><stop offset="1" stop-color="rgba(200,226,152,0)" stop-opacity="0"></stop></linearGradient></defs><path d="M 12.349 67 C 8.612 67 5.545 65.906 3.327 63.725 L 7.872 59.243 C 10.001 61.342 14.937 61.106 21.077 58.621 C 28.299 55.698 36.287 50.128 43.578 42.938 L 48.123 47.421 C 40.244 55.192 31.502 61.255 23.521 64.488 C 19.379 66.169 15.607 67.007 12.342 67.007 Z" fill="url(#idid_oeF1ejwa8nNyIG3lRqg-94788570)"></path></g><path d="M 12.171 20.166 L 24.78 20.166 L 24.78 19.113 L 24.363 20.078 C 24.493 20.132 24.636 20.159 24.78 20.159 L 24.78 19.106 L 24.363 20.072 L 24.773 19.113 L 23.897 19.7 C 24.014 19.869 24.164 19.997 24.363 20.078 L 24.773 19.12 L 23.897 19.707 L 24.787 19.113 L 23.76 19.43 C 23.794 19.532 23.835 19.626 23.897 19.707 L 24.787 19.113 L 23.76 19.43 L 24.773 19.12 L 23.712 19.12 C 23.712 19.221 23.726 19.329 23.76 19.43 L 24.773 19.12 L 23.712 19.12 L 23.712 31.556 C 23.712 32.271 24.301 32.859 25.033 32.859 L 28.826 32.859 C 29.551 32.859 30.147 32.278 30.147 31.556 L 30.147 19.12 C 30.147 18.397 29.996 17.695 29.723 17.061 C 29.312 16.109 28.634 15.305 27.778 14.731 C 27.354 14.448 26.875 14.218 26.368 14.063 C 25.862 13.908 25.321 13.827 24.773 13.827 L 12.164 13.827 C 11.439 13.827 10.843 14.407 10.843 15.13 L 10.843 18.87 C 10.843 19.585 11.432 20.173 12.164 20.173 Z" fill="rgb(200,226,152)"></path><path d="M 58.514 44.241 L 45.905 44.241 L 45.905 45.294 L 46.322 44.329 C 46.192 44.275 46.049 44.248 45.905 44.248 L 45.905 45.301 L 46.322 44.336 L 45.912 45.294 L 46.788 44.707 C 46.672 44.538 46.521 44.41 46.322 44.329 L 45.912 45.288 L 46.788 44.7 L 45.898 45.294 L 46.925 44.977 C 46.891 44.876 46.849 44.781 46.788 44.7 L 45.898 45.294 L 46.925 44.977 L 45.912 45.288 L 46.973 45.288 C 46.973 45.187 46.959 45.078 46.925 44.977 L 45.912 45.288 L 46.973 45.288 L 46.973 32.852 C 46.973 32.136 46.384 31.549 45.652 31.549 L 41.859 31.549 C 41.134 31.549 40.538 32.129 40.538 32.852 L 40.538 45.288 C 40.538 46.01 40.689 46.712 40.962 47.347 C 41.373 48.299 42.051 49.102 42.907 49.676 C 43.331 49.96 43.81 50.189 44.317 50.344 C 44.823 50.5 45.364 50.581 45.912 50.581 L 58.521 50.581 C 59.246 50.581 59.842 50 59.842 49.278 L 59.842 45.538 C 59.842 44.822 59.253 44.234 58.521 44.234 Z" fill="rgb(200,226,152)"></path><path d="M 104.508 47.455 C 106.062 49.15 105.405 50.662 103.112 50.662 L 100.722 50.662 C 99.347 50.662 98.395 50.25 97.471 49.244 L 87.299 38.239 C 86.402 37.267 85.499 37.598 85.478 38.914 L 85.314 48.069 C 85.286 49.757 84.355 50.655 82.644 50.655 L 80.919 50.655 C 79.201 50.655 78.27 49.744 78.27 48.042 L 78.27 16.142 C 78.27 14.448 79.194 13.53 80.919 13.53 L 92.488 13.53 C 100.688 13.53 105.802 18.256 105.802 24.656 C 105.802 31.056 101.024 35.127 96.389 36.092 C 95.226 36.336 94.924 36.984 95.725 37.861 L 104.508 47.448 Z M 91.988 19.538 L 86.731 19.538 C 85.772 19.538 85.259 20.045 85.259 20.99 L 85.259 29.503 C 85.259 30.448 85.772 30.955 86.731 30.955 L 91.988 30.955 C 96.348 30.955 98.662 28.76 98.662 25.317 C 98.662 21.874 96.465 19.545 91.988 19.545 Z" fill="rgb(200,226,152)"></path><path d="M 107.136 36.869 C 107.136 28.74 113.236 22.232 121.731 22.232 C 130.226 22.232 136.38 28.74 136.38 36.869 C 136.38 44.998 130.109 51.58 121.765 51.58 C 113.421 51.58 107.13 45.342 107.13 36.869 Z M 129.534 36.869 C 129.534 32.292 126.94 28.065 121.731 28.065 C 116.521 28.065 113.982 32.292 113.982 36.869 C 113.982 41.446 116.672 45.747 121.772 45.747 C 126.872 45.747 129.541 41.467 129.541 36.869 Z" fill="rgb(200,226,152)"></path><path d="M 138.611 38.982 L 138.611 25.709 C 138.611 24.014 139.535 23.096 141.26 23.096 L 142.732 23.096 C 144.45 23.096 145.381 24.008 145.381 25.709 L 145.381 38.044 C 145.381 44.072 147.757 45.686 151.186 45.686 C 154.616 45.686 157.149 44.072 157.149 38.044 L 157.149 25.709 C 157.149 24.014 158.073 23.096 159.798 23.096 L 161.269 23.096 C 162.988 23.096 163.919 24.008 163.919 25.709 L 163.919 38.982 C 163.919 47.934 158.627 51.58 151.193 51.58 C 143.759 51.58 138.625 47.901 138.625 38.982 Z" fill="rgb(200,226,152)"></path><path d="M 182.668 22.408 C 189.671 22.408 193.491 27.228 193.491 34.472 L 193.491 48.049 C 193.491 49.744 192.566 50.662 190.841 50.662 L 189.37 50.662 C 187.652 50.662 186.721 49.751 186.721 48.049 L 186.721 35.978 C 186.721 29.983 184.188 28.065 180.84 28.065 C 177.493 28.065 174.604 30.503 174.604 36.376 L 174.604 48.049 C 174.604 49.744 173.68 50.662 171.955 50.662 L 170.483 50.662 C 168.765 50.662 167.834 49.751 167.834 48.049 L 167.834 25.716 C 167.834 24.021 168.745 23.103 170.435 23.103 L 170.559 23.103 C 172.202 23.103 173.139 23.846 173.338 25.317 C 173.495 26.499 174.043 26.823 174.645 26.094 C 176.322 24.089 178.992 22.408 182.648 22.408 Z" fill="rgb(200,226,152)"></path><path d="M 217.463 24.001 L 217.463 16.142 C 217.463 14.448 218.387 13.53 220.112 13.53 L 221.584 13.53 C 223.302 13.53 224.233 14.441 224.233 16.142 L 224.233 48.042 C 224.233 49.737 223.322 50.655 221.632 50.655 L 221.508 50.655 C 219.866 50.655 218.928 49.892 218.722 48.393 C 218.558 47.178 217.874 47.063 217.004 47.975 C 215.101 49.953 212.212 51.425 208.584 51.425 C 201.191 51.425 195.66 45.45 195.66 37.247 C 195.66 28.626 201.322 22.347 208.872 22.347 C 211.74 22.347 214.088 23.258 215.84 24.669 C 216.819 25.466 217.47 25.25 217.47 24.001 Z M 217.75 36.93 C 217.75 32.393 215.19 28.065 210.179 28.065 C 205.169 28.065 202.492 32.291 202.492 36.869 C 202.492 41.446 205.128 45.747 210.22 45.747 C 215.313 45.747 217.757 41.385 217.757 36.923 Z" fill="rgb(200,226,152)"></path><path d="M 227.354 14.38 C 227.354 12.206 229.148 10.519 231.681 10.519 C 234.214 10.519 236.007 12.213 236.007 14.38 C 236.007 16.547 234.193 18.262 231.681 18.262 C 229.169 18.262 227.354 16.568 227.354 14.38 Z M 232.413 50.655 L 230.941 50.655 C 229.223 50.655 228.292 49.744 228.292 48.042 L 228.292 25.709 C 228.292 24.014 229.216 23.096 230.941 23.096 L 232.413 23.096 C 234.131 23.096 235.062 24.008 235.062 25.709 L 235.062 48.042 C 235.062 49.737 234.138 50.655 232.413 50.655 Z" fill="rgb(200,226,152)"></path></g></svg>