<svg width="222" height="63" viewBox="0 0 222 63" fill="none" xmlns="http://www.w3.org/2000/svg">
<g clip-path="url(#clip0_19_207)">
<path d="M23.2328 22.6315L18.9572 18.4163C26.3687 11.1095 34.5917 5.40875 42.0999 2.36794C50.4516 -1.01567 57.1999 -0.761741 61.1021 3.0853L56.8265 7.30053C54.8238 5.32623 50.1811 5.54842 44.4051 7.88457C37.6117 10.6334 30.0971 15.8707 23.2393 22.6315H23.2328Z" fill="url(#paint0_linear_19_207)"/>
<path d="M56.8201 7.29413C57.0326 7.50362 57.2129 7.72581 57.3738 7.98609C57.6185 8.37333 57.8117 8.8431 57.9534 9.42079C58.095 9.99214 58.1787 10.6714 58.1787 11.4459C58.1787 13.0202 57.8375 14.9882 57.1098 17.191C56.5625 18.8479 55.8091 20.6318 54.8496 22.5045C53.4137 25.3105 51.5334 28.3005 49.2475 31.3349C46.968 34.3631 44.2828 37.4356 41.2628 40.4129C40.6124 41.0541 39.9556 41.6826 39.2988 42.292L43.4457 46.6406C44.1476 45.9867 44.8495 45.3201 45.5449 44.6345C51.2823 38.9782 55.8864 33.0045 59.1124 27.3165C60.7223 24.4725 61.9908 21.6983 62.8601 19.0447C63.7358 16.3912 64.2252 13.8582 64.2252 11.4586C64.2252 9.88421 64.0063 8.36064 63.504 6.93228C63.2529 6.22128 62.9309 5.52932 62.5252 4.8818C62.126 4.23428 61.6431 3.63119 61.0893 3.08524L56.8136 7.30048L56.8201 7.29413Z" fill="white"/>
<path d="M7.40515 55.7059C7.19266 55.4964 7.01236 55.2742 6.85138 55.0139C6.60668 54.6267 6.4135 54.1569 6.27184 53.5792C6.13018 53.0079 6.04647 52.3286 6.04647 51.5541C6.04647 49.9798 6.38775 48.0118 7.11538 45.809C7.66272 44.1521 8.41612 42.3682 9.37557 40.4955C10.8115 37.6896 12.6918 34.6996 14.9777 31.6651C17.2572 28.637 19.9424 25.5644 22.9624 22.5871C23.6128 21.9459 24.2696 21.3174 24.9264 20.708L20.7795 16.3595C20.0776 17.0133 19.3757 17.6799 18.6803 18.3655C12.9429 24.0218 8.33884 29.9955 5.11277 35.6835C3.50296 38.5275 2.23442 41.3017 1.35868 43.9553C0.495823 46.6216 0 49.1545 0 51.5541C0 53.1285 0.212496 54.6521 0.721197 56.0804C0.972329 56.7914 1.29429 57.4834 1.69997 58.1309C2.0992 58.7785 2.58214 59.3815 3.13592 59.9275L7.41159 55.7123L7.40515 55.7059Z" fill="white"/>
<path d="M11.6166 63C8.10075 63 5.21596 61.9716 3.12964 59.9211L7.40531 55.7059C9.40792 57.6802 14.0506 57.458 19.8266 55.1218C26.6201 52.373 34.1347 47.1357 40.9925 40.3748L45.2682 44.5901C37.8566 51.8969 29.6336 57.5976 22.1255 60.6385C18.2297 62.2192 14.6817 63.0063 11.6101 63.0063L11.6166 63Z" fill="url(#paint1_linear_19_207)"/>
<path d="M11.449 18.9622H23.3102V17.9719L22.9174 18.8797C23.0397 18.9305 23.1749 18.9559 23.3102 18.9559V17.9655L22.9174 18.8733L23.3037 17.9719L22.4795 18.5242C22.589 18.6829 22.7306 18.8035 22.9174 18.8797L23.3037 17.9782L22.4795 18.5305L23.3166 17.9719L22.3507 18.2703C22.3829 18.3655 22.4215 18.4544 22.4795 18.5305L23.3166 17.9719L22.3507 18.2703L23.3037 17.9782H22.3056C22.3056 18.0735 22.3185 18.175 22.3507 18.2703L23.3037 17.9782H22.3056V29.6717C22.3056 30.3446 22.8594 30.8969 23.5484 30.8969H27.1158C27.7983 30.8969 28.3585 30.351 28.3585 29.6717V17.9782C28.3585 17.299 28.2169 16.6388 27.9593 16.042C27.573 15.1469 26.9355 14.3915 26.1306 13.8519C25.7313 13.5852 25.2806 13.3694 24.8041 13.2234C24.3276 13.0774 23.8189 13.0012 23.3037 13.0012H11.4426C10.76 13.0012 10.1998 13.5472 10.1998 14.2264V17.7433C10.1998 18.4163 10.7536 18.9686 11.4426 18.9686L11.449 18.9622Z" fill="white"/>
<path d="M55.0428 41.6H43.1817V42.5904L43.5745 41.6826C43.4521 41.6318 43.3169 41.6064 43.1817 41.6064V42.5967L43.5745 41.6889L43.1881 42.5904L44.0123 42.0381C43.9029 41.8794 43.7612 41.7588 43.5745 41.6826L43.1881 42.584L44.0123 42.0317L43.1752 42.5904L44.1411 42.292C44.1089 42.1968 44.0703 42.1079 44.0123 42.0317L43.1752 42.5904L44.1411 42.292L43.1881 42.584H44.1862C44.1862 42.4888 44.1733 42.3872 44.1411 42.292L43.1881 42.584H44.1862V30.8905C44.1862 30.2176 43.6324 29.6653 42.9434 29.6653H39.3761C38.6935 29.6653 38.1333 30.2113 38.1333 30.8905V42.584C38.1333 43.2633 38.275 43.9235 38.5325 44.5202C38.9189 45.4153 39.5564 46.1708 40.3613 46.7104C40.7605 46.977 41.2113 47.1928 41.6878 47.3389C42.1643 47.4849 42.673 47.561 43.1881 47.561H55.0492C55.7318 47.561 56.292 47.0151 56.292 46.3358V42.8189C56.292 42.146 55.7382 41.5937 55.0492 41.5937L55.0428 41.6Z" fill="white"/>
<path d="M98.3083 44.6218C99.77 46.2152 99.1518 47.6372 96.9947 47.6372H94.7474C93.4531 47.6372 92.558 47.25 91.6887 46.3041L82.12 35.9564C81.2764 35.0423 80.4265 35.3533 80.4071 36.5913L80.2526 45.1995C80.2268 46.7865 79.3511 47.6309 77.7413 47.6309H76.1186C74.5023 47.6309 73.6266 46.7738 73.6266 45.1741V15.1786C73.6266 13.5852 74.4959 12.7218 76.1186 12.7218H87.0009C94.7152 12.7218 99.5253 17.1656 99.5253 23.1838C99.5253 29.2019 95.0307 33.0299 90.6713 33.9377C89.5766 34.1662 89.2933 34.7757 90.0467 35.6009L98.3083 44.6154V44.6218ZM86.5309 18.3718H81.5855C80.684 18.3718 80.2011 18.8479 80.2011 19.7367V27.7418C80.2011 28.6306 80.684 29.1067 81.5855 29.1067H86.5309C90.6327 29.1067 92.8092 27.0435 92.8092 23.8059C92.8092 20.5683 90.7422 18.3781 86.5309 18.3781V18.3718Z" fill="white"/>
<path d="M100.781 34.6677C100.781 27.0245 106.518 20.9047 114.509 20.9047C122.5 20.9047 128.289 27.0245 128.289 34.6677C128.289 42.311 122.391 48.5006 114.542 48.5006C106.692 48.5006 100.774 42.6348 100.774 34.6677H100.781ZM121.85 34.6677C121.85 30.3636 119.41 26.3896 114.509 26.3896C109.609 26.3896 107.22 30.3636 107.22 34.6677C107.22 38.9719 109.751 43.0157 114.548 43.0157C119.345 43.0157 121.857 38.9909 121.857 34.6677H121.85Z" fill="white"/>
<path d="M130.389 36.6548V24.1741C130.389 22.5807 131.258 21.7173 132.881 21.7173H134.265C135.881 21.7173 136.757 22.5743 136.757 24.1741V35.7723C136.757 41.4413 138.991 42.9586 142.217 42.9586C145.444 42.9586 147.826 41.4413 147.826 35.7723V24.1741C147.826 22.5807 148.695 21.7173 150.318 21.7173H151.703C153.319 21.7173 154.195 22.5743 154.195 24.1741V36.6548C154.195 45.0725 149.217 48.5006 142.224 48.5006C135.231 48.5006 130.401 45.0408 130.401 36.6548H130.389Z" fill="white"/>
<path d="M171.832 21.0698C178.419 21.0698 182.012 25.6024 182.012 32.4141V45.1804C182.012 46.7738 181.143 47.6372 179.52 47.6372H178.136C176.519 47.6372 175.644 46.7802 175.644 45.1804V33.8298C175.644 28.1925 173.261 26.3896 170.112 26.3896C166.964 26.3896 164.246 28.6813 164.246 34.2043V45.1804C164.246 46.7738 163.377 47.6372 161.754 47.6372H160.37C158.754 47.6372 157.878 46.7802 157.878 45.1804V24.1804C157.878 22.587 158.734 21.7237 160.325 21.7237H160.441C161.986 21.7237 162.868 22.422 163.055 23.8059C163.203 24.9168 163.718 25.2215 164.285 24.5359C165.863 22.6505 168.374 21.0698 171.812 21.0698H171.832Z" fill="white"/>
<path d="M204.563 22.568V15.1786C204.563 13.5852 205.432 12.7218 207.055 12.7218H208.439C210.055 12.7218 210.931 13.5789 210.931 15.1786V45.1741C210.931 46.7675 210.075 47.6309 208.484 47.6309H208.368C206.823 47.6309 205.941 46.9135 205.747 45.5042C205.593 44.3615 204.949 44.2536 204.131 45.1106C202.341 46.9706 199.624 48.3546 196.211 48.3546C189.256 48.3546 184.053 42.7364 184.053 35.0232C184.053 26.9165 189.379 21.0127 196.481 21.0127C199.179 21.0127 201.388 21.8697 203.036 23.1965C203.957 23.9455 204.569 23.7424 204.569 22.568H204.563ZM204.833 34.7249C204.833 30.4588 202.425 26.3896 197.711 26.3896C192.998 26.3896 190.48 30.3636 190.48 34.6677C190.48 38.9718 192.959 43.0157 197.75 43.0157C202.541 43.0157 204.839 38.9147 204.839 34.7185L204.833 34.7249Z" fill="white"/>
<path d="M213.867 13.5218C213.867 11.4776 215.554 9.89057 217.937 9.89057C220.319 9.89057 222.007 11.484 222.007 13.5218C222.007 15.5596 220.3 17.172 217.937 17.172C215.574 17.172 213.867 15.5786 213.867 13.5218ZM218.626 47.6309H217.241C215.625 47.6309 214.749 46.7739 214.749 45.1741V24.1741C214.749 22.5807 215.619 21.7174 217.241 21.7174H218.626C220.242 21.7174 221.118 22.5744 221.118 24.1741V45.1741C221.118 46.7675 220.249 47.6309 218.626 47.6309Z" fill="white"/>
</g>
<defs>
<linearGradient id="paint0_linear_19_207" x1="61.0957" y1="11.319" x2="18.9507" y2="11.319" gradientUnits="userSpaceOnUse">
<stop stop-color="white"/>
<stop offset="0.16" stop-color="white"/>
<stop offset="0.22" stop-color="white" stop-opacity="0.91"/>
<stop offset="0.34" stop-color="white" stop-opacity="0.69"/>
<stop offset="0.51" stop-color="white" stop-opacity="0.33"/>
<stop offset="0.65" stop-color="white" stop-opacity="0"/>
</linearGradient>
<linearGradient id="paint1_linear_19_207" x1="3.12964" y1="51.6874" x2="45.2746" y2="51.6874" gradientUnits="userSpaceOnUse">
<stop stop-color="white"/>
<stop offset="0.16" stop-color="white"/>
<stop offset="0.22" stop-color="white" stop-opacity="0.91"/>
<stop offset="0.34" stop-color="white" stop-opacity="0.69"/>
<stop offset="0.51" stop-color="white" stop-opacity="0.33"/>
<stop offset="0.65" stop-color="white" stop-opacity="0"/>
</linearGradient>
<clipPath id="clip0_19_207">
<rect width="222" height="63" fill="white"/>
</clipPath>
</defs>
</svg>
